<svg xmlns="http://www.w3.org/2000/svg" viewBox="0 0 192 192" height="192" width="192"
    style="
background: transparent;
">
    <style>
        rect, path {
        color: #FFDB5C;
        }
    </style>
    <path
        fill="currentColor"
        d="M147 99c.1 5.6 0 11.1-.7 16.7-.8 6.8-8 10-15 10l-13.5.2c-7.3 0-13.1-4.8-14.4-12-.8-4.3-1.3-8.6-1.6-12.9a7 7 0 0 1 7-7.7h21.6c3.4 0 5.8 2.3 6 5.7.1 3.6.1 7.3-.2 10.9-.4 4.1-3 6.9-6.5 9l-4 2.2c6.2-.4 12.2-5.4 13.3-10.8.7-3.7 1.1-7.4 1.1-11.1 0-6.1-4-9.9-10-9.9-6.9 0-13.7.2-20.5 0-6.5-.3-13.3 5.5-11.8 13.1.8 4.2 1 8.5 1.8 12.6 1.3 7.3 5.7 12.8 12.9 13.7 7.7 1.1 15.9 1 23.7 0 6.9-1 13-6.4 14-13.3.7-5.5.5-11 .6-16.7a18 18 0 0 0-18.5-18.6h-17.7c-7-.3-14.4 2-18.6 7.5v5.1l2-2.1a15 15 0 0 1 13-6.6c7.4.2 14.8.1 22.2 0 9.5 0 13.6 7.1 13.8 15ZM45 99c-.1 5.6 0 11.1.7 16.7.9 6.8 8 10 15 10l13.6.2c7.3 0 13-4.8 14.3-12 .8-4.3 1.3-8.6 1.6-12.9a7 7 0 0 0-7-7.7H61.6a5.8 5.8 0 0 0-6 5.7c-.1 3.6 0 7.3.2 10.9.4 4.1 3 6.9 6.5 9l4 2.2c-6.1-.4-12.2-5.4-13.3-10.8-.7-3.7-1.1-7.4-1.1-11.1 0-6.1 4-9.9 10.1-9.9 6.8 0 13.6.2 20.4 0 6.5-.3 13.3 5.5 11.8 13.1-.8 4.2-1 8.5-1.8 12.6-1.3 7.3-5.7 12.8-12.8 13.7-7.8 1.1-16 1-23.7 0-7-1-13-6.4-14-13.3-.8-5.5-.6-11-.7-16.7a18 18 0 0 1 18.5-18.6h17.7c7-.3 14.4 2 18.6 7.5v5.1l-2-2.1A15 15 0 0 0 81 84c-7.4.2-14.8.1-22.2 0-9.4 0-13.6 7.1-13.8 15Z"
        class="cls-1"
    />
    <rect
        fill="currentColor"
        width="54.4"
        height="3.4"
        x="68.6"
        y="67.7"
        class="cls-1"
        rx="1.7"
        ry="1.7"
    />
</svg>